<?xml version="1.0" encoding="UTF-8" standalone="no"?>
<svg
   xmlns:dc="http://purl.org/dc/elements/1.1/"
   xmlns:cc="http://creativecommons.org/ns#"
   xmlns:rdf="http://www.w3.org/1999/02/22-rdf-syntax-ns#"
   xmlns:svg="http://www.w3.org/2000/svg"
   xmlns="http://www.w3.org/2000/svg"
   xmlns:sodipodi="http://sodipodi.sourceforge.net/DTD/sodipodi-0.dtd"
   xmlns:inkscape="http://www.inkscape.org/namespaces/inkscape"
   width="480"
   height="120"
   viewBox="0 0 480 120"
   fill="none"
   version="1.1"
   id="svg68"
   sodipodi:docname="date-top.svg"
   inkscape:version="1.0.2 (e86c870879, 2021-01-15)">
  <metadata
     id="metadata74">
    <rdf:RDF>
      <cc:Work
         rdf:about="">
        <dc:format>image/svg+xml</dc:format>
        <dc:type
           rdf:resource="http://purl.org/dc/dcmitype/StillImage" />
      </cc:Work>
    </rdf:RDF>
  </metadata>
  <defs
     id="defs72" />
  <sodipodi:namedview
     pagecolor="#ffffff"
     bordercolor="#666666"
     borderopacity="1"
     objecttolerance="10"
     gridtolerance="10"
     guidetolerance="10"
     inkscape:pageopacity="0"
     inkscape:pageshadow="2"
     inkscape:window-width="1820"
     inkscape:window-height="777"
     id="namedview70"
     showgrid="false"
     inkscape:zoom="1"
     inkscape:cx="37.5"
     inkscape:cy="60.5"
     inkscape:window-x="0"
     inkscape:window-y="40"
     inkscape:window-maximized="0"
     inkscape:current-layer="svg68"
     inkscape:document-rotation="0" />
  <path
     d="M0 30C0 13.4315 13.4315 0 30 0H450C466.569 0 480 13.4315 480 30V120H0V30Z"
     fill="#22A7F0"
     id="path66"
     style="fill:#2c3e50;fill-opacity:1" />
  <path
     style="fill:none;fill-opacity:1"
     d="M 0.2319339,72.25 C 0.5574085,28.439989 0.7420474,24.088136 2.4696327,19.50849 5.1006114,12.534043 12.98444,4.8552109 20.032012,2.4027707 25.341032,0.5553181 31.736029,0.5 240,0.5 c 208.26397,0 214.65897,0.055318 219.96799,1.9027707 7.04757,2.4524402 14.9314,10.1312723 17.56238,17.1057193 1.72758,4.579646 1.91222,8.931499 2.2377,52.74151 L 480.12281,120 H 240 -0.1228118 Z"
     id="path1564" />
  <path
     style="fill:#2c3e50;fill-opacity:1"
     d="M 0.2319339,72.25 C 0.5574085,28.439989 0.7420474,24.088136 2.4696327,19.50849 5.1006114,12.534043 12.98444,4.8552109 20.032012,2.4027707 25.341032,0.5553181 31.736029,0.5 240,0.5 c 208.26397,0 214.65897,0.055318 219.96799,1.9027707 7.04757,2.4524402 14.9314,10.1312723 17.56238,17.1057193 1.72758,4.579646 1.91222,8.931499 2.2377,52.74151 L 480.12281,120 H 240 -0.1228118 Z"
     id="path68" />
</svg>
